NotoSerifYezidi-Medium.ufo
<glyph name="uni060C" format="2">
  <advance width="226"/>
  <unicode hex="060C"/>
  <outline>
    <contour>
      <point x="112" y="-58" type="curve" smooth="yes"/>
      <point x="148" y="-58"/>
      <point x="178" y="-27"/>
      <point x="185" y="16" type="curve"/>
      <point x="149" y="27"/>
      <point x="128" y="37"/>
      <point x="128" y="56" type="curve" smooth="yes"/>
      <point x="128" y="89"/>
      <point x="151" y="148"/>
      <point x="186" y="187" type="curve"/>
      <point x="153" y="214" type="line"/>
      <point x="85" y="146"/>
      <point x="45" y="68"/>
      <point x="45" y="15" type="curve" smooth="yes"/>
      <point x="45" y="-23"/>
      <point x="72" y="-58"/>
    </contour>
  </outline>
</glyph>
<glyph name="uni061B" format="2">
  <advance width="226"/>
  <unicode hex="061B"/>
  <outline>
    <contour>
      <point x="115" y="181" type="curve" smooth="yes"/>
      <point x="152" y="181"/>
      <point x="181" y="210"/>
      <point x="188" y="254" type="curve"/>
      <point x="153" y="265"/>
      <point x="131" y="276"/>
      <point x="131" y="294" type="curve" smooth="yes"/>
      <point x="131" y="326"/>
      <point x="154" y="386"/>
      <point x="189" y="424" type="curve"/>
      <point x="156" y="452" type="line"/>
      <point x="88" y="383"/>
      <point x="48" y="306"/>
      <point x="48" y="253" type="curve" smooth="yes"/>
      <point x="48" y="214"/>
      <point x="75" y="181"/>
    </contour>
    <contour>
      <point x="140" y="-64" type="curve"/>
      <point x="170" y="-21"/>
      <point x="185" y="4"/>
      <point x="185" y="12" type="curve" smooth="yes"/>
      <point x="185" y="24"/>
      <point x="157" y="45"/>
      <point x="102" y="77" type="curve"/>
      <point x="93" y="64"/>
      <point x="84" y="50"/>
      <point x="77" y="36" type="curve" smooth="yes"/>
      <point x="70" y="22"/>
      <point x="62" y="7"/>
      <point x="54" y="-8" type="curve"/>
      <point x="78" y="-22"/>
      <point x="107" y="-40"/>
    </contour>
  </outline>
</glyph>
<glyph name="uni061F" format="2">
  <advance width="425"/>
  <unicode hex="061F"/>
  <outline>
    <contour>
      <point x="241" y="107" type="line"/>
      <point x="264" y="152"/>
      <point x="275" y="190"/>
      <point x="275" y="218" type="curve" smooth="yes"/>
      <point x="275" y="246"/>
      <point x="264" y="270"/>
      <point x="242" y="292" type="curve" smooth="yes"/>
      <point x="208" y="327"/>
      <point x="147" y="347"/>
      <point x="93" y="373" type="curve"/>
      <point x="114" y="437"/>
      <point x="168" y="476"/>
      <point x="232" y="476" type="curve" smooth="yes"/>
      <point x="278" y="476"/>
      <point x="303" y="465"/>
      <point x="343" y="428" type="curve"/>
      <point x="364" y="446"/>
      <point x="374" y="466"/>
      <point x="374" y="488" type="curve" smooth="yes"/>
      <point x="374" y="503"/>
      <point x="368" y="516"/>
      <point x="358" y="526" type="curve" smooth="yes"/>
      <point x="330" y="556"/>
      <point x="291" y="572"/>
      <point x="243" y="572" type="curve" smooth="yes"/>
      <point x="211" y="572"/>
      <point x="180" y="562"/>
      <point x="150" y="542" type="curve" smooth="yes"/>
      <point x="92" y="504"/>
      <point x="52" y="432"/>
      <point x="52" y="370" type="curve" smooth="yes"/>
      <point x="52" y="322"/>
      <point x="77" y="287"/>
      <point x="129" y="258" type="curve" smooth="yes"/>
      <point x="158" y="242"/>
      <point x="178" y="229"/>
      <point x="188" y="218" type="curve" smooth="yes"/>
      <point x="199" y="208"/>
      <point x="204" y="196"/>
      <point x="204" y="184" type="curve" smooth="yes"/>
      <point x="204" y="174"/>
      <point x="202" y="158"/>
      <point x="197" y="134" type="curve"/>
    </contour>
    <contour>
      <point x="217" y="-69" type="curve"/>
      <point x="247" y="-24"/>
      <point x="262" y="1"/>
      <point x="262" y="8" type="curve" smooth="yes"/>
      <point x="262" y="13"/>
      <point x="255" y="21"/>
      <point x="243" y="31" type="curve" smooth="yes"/>
      <point x="230" y="42"/>
      <point x="209" y="55"/>
      <point x="180" y="73" type="curve"/>
      <point x="170" y="59"/>
      <point x="162" y="46"/>
      <point x="155" y="31" type="curve" smooth="yes"/>
      <point x="148" y="17"/>
      <point x="140" y="3"/>
      <point x="131" y="-12" type="curve"/>
      <point x="160" y="-28"/>
      <point x="183" y="-44"/>
    </contour>
  </outline>
</glyph>
<glyph name="uni06D4" format="2">
  <advance width="256"/>
  <unicode hex="06D4"/>
  <outline>
    <contour>
      <point x="44" y="2" type="curve" smooth="yes"/>
      <point x="211" y="2" type="line" smooth="yes"/>
      <point x="214" y="2"/>
      <point x="216" y="3"/>
      <point x="216" y="6" type="curve" smooth="yes"/>
      <point x="216" y="87" type="line" smooth="yes"/>
      <point x="216" y="89"/>
      <point x="213" y="90"/>
      <point x="211" y="90" type="curve" smooth="yes"/>
      <point x="44" y="90" type="line" smooth="yes"/>
      <point x="42" y="90"/>
      <point x="41" y="89"/>
      <point x="41" y="87" type="curve" smooth="yes"/>
      <point x="41" y="6" type="line" smooth="yes"/>
      <point x="41" y="3"/>
      <point x="42" y="2"/>
    </contour>
  </outline>
</glyph>
<glyph name="elif-yezi" format="2">
	<unicode hex="10E80"/>
	<advance width="240"/>
	<outline>
		<contour>
			<point x="109" y="0" type="curve"/>
			<point x="148" y="0" type="line"/>
			<point x="151" y="76"/>
			<point x="153" y="179"/>
			<point x="153" y="269" type="curve" smooth="yes"/>
			<point x="153" y="462"/>
			<point x="144" y="607"/>
			<point x="122" y="770" type="curve"/>
			<point x="117" y="770" type="line"/>
			<point x="33" y="708" type="line"/>
			<point x="85" y="502"/>
			<point x="109" y="278"/>
		</contour>
	</outline>
	<anchor name="top" x="54" y="795"/>
	<anchor name="top.madda" x="54" y="792"/>
</glyph>
<glyph name="be-yezi" format="2">
  <advance width="527"/>
  <unicode hex="10E81"/>
  <outline>
    <contour>
      <point x="266" y="0" type="curve"/>
      <point x="277" y="0" type="line"/>
      <point x="343" y="158"/>
      <point x="415" y="309"/>
      <point x="492" y="441" type="curve"/>
      <point x="461" y="463" type="line"/>
      <point x="397" y="350"/>
      <point x="340" y="236"/>
      <point x="286" y="111" type="curve"/>
      <point x="318" y="111" type="line"/>
      <point x="256" y="238"/>
      <point x="186" y="356"/>
      <point x="113" y="469" type="curve"/>
      <point x="106" y="469" type="line"/>
      <point x="29" y="380" type="line"/>
      <point x="112" y="262"/>
      <point x="192" y="135"/>
    </contour>
  </outline>
</glyph>
<glyph name="pe-yezi" format="2">
  <advance width="466"/>
  <unicode hex="10E82"/>
  <outline>
    <contour>
      <point x="84" y="-293" type="line"/>
      <point x="313" y="-112" type="line" smooth="yes"/>
      <point x="387" y="-52"/>
      <point x="406" y="-30"/>
      <point x="406" y="2" type="curve" smooth="yes"/>
      <point x="406" y="38"/>
      <point x="383" y="62"/>
      <point x="319" y="91" type="curve" smooth="yes"/>
      <point x="183" y="152" type="line"/>
      <point x="145" y="104" type="line"/>
      <point x="308" y="221" type="line" smooth="yes"/>
      <point x="369" y="265"/>
      <point x="386" y="286"/>
      <point x="386" y="315" type="curve" smooth="yes"/>
      <point x="386" y="347"/>
      <point x="363" y="367"/>
      <point x="299" y="392" type="curve" smooth="yes"/>
      <point x="110" y="467" type="line"/>
      <point x="104" y="467" type="line"/>
      <point x="43" y="383" type="line"/>
      <point x="43" y="377" type="line"/>
      <point x="237" y="300" type="line" smooth="yes"/>
      <point x="268" y="288"/>
      <point x="276" y="281"/>
      <point x="276" y="265" type="curve" smooth="yes"/>
      <point x="276" y="249"/>
      <point x="267" y="237"/>
      <point x="235" y="213" type="curve" smooth="yes"/>
      <point x="84" y="100" type="line"/>
      <point x="84" y="80" type="line"/>
      <point x="256" y="0" type="line" smooth="yes"/>
      <point x="288" y="-15"/>
      <point x="298" y="-27"/>
      <point x="298" y="-47" type="curve" smooth="yes"/>
      <point x="298" y="-67"/>
      <point x="288" y="-80"/>
      <point x="240" y="-121" type="curve" smooth="yes"/>
      <point x="63" y="-268" type="line"/>
    </contour>
  </outline>
</glyph>
<glyph name="phe-yezi" format="2">
  <advance width="478"/>
  <unicode hex="10E83"/>
  <outline>
    <contour>
      <point x="362" y="-199" type="curve"/>
      <point x="451" y="-147" type="line"/>
      <point x="454" y="-141" type="line"/>
      <point x="386" y="-32"/>
      <point x="334" y="63"/>
      <point x="289" y="159" type="curve" smooth="yes"/>
      <point x="240" y="264"/>
      <point x="192" y="356"/>
      <point x="126" y="463" type="curve"/>
      <point x="37" y="411" type="line"/>
      <point x="34" y="405" type="line"/>
      <point x="102" y="296"/>
      <point x="154" y="201"/>
      <point x="199" y="105" type="curve" smooth="yes"/>
      <point x="248" y="0"/>
      <point x="296" y="-92"/>
    </contour>
  </outline>
</glyph>
<glyph name="the-yezi" format="2">
  <advance width="519"/>
  <unicode hex="10E84"/>
  <outline>
    <contour>
      <point x="24" y="0" type="line"/>
      <point x="455" y="0" type="line"/>
      <point x="495" y="102" type="line"/>
      <point x="495" y="107" type="line"/>
      <point x="63" y="107" type="line"/>
      <point x="24" y="6" type="line"/>
    </contour>
    <contour>
      <point x="251" y="86" type="curve"/>
      <point x="294" y="86" type="line"/>
      <point x="297" y="125"/>
      <point x="299" y="174"/>
      <point x="299" y="225" type="curve" smooth="yes"/>
      <point x="299" y="316"/>
      <point x="293" y="387"/>
      <point x="280" y="463" type="curve"/>
      <point x="275" y="463" type="line"/>
      <point x="209" y="414" type="line"/>
      <point x="238" y="313"/>
      <point x="251" y="208"/>
    </contour>
  </outline>
</glyph>
<glyph name="se-yezi" format="2">
  <advance width="498"/>
  <unicode hex="10E85"/>
  <outline>
    <contour>
      <point x="297" y="0" type="curve"/>
      <point x="332" y="0" type="line"/>
      <point x="276" y="170"/>
      <point x="177" y="329"/>
      <point x="88" y="422" type="curve"/>
      <point x="87" y="356" type="line"/>
      <point x="450" y="356" type="line"/>
      <point x="490" y="458" type="line"/>
      <point x="490" y="463" type="line"/>
      <point x="69" y="463" type="line"/>
      <point x="30" y="362" type="line"/>
      <point x="30" y="356" type="line"/>
      <point x="122" y="274"/>
      <point x="234" y="147"/>
    </contour>
  </outline>
</glyph>
<glyph name="cim-yezi" format="2">
  <advance width="554"/>
  <unicode hex="10E86"/>
  <outline>
    <contour>
      <point x="13" y="0" type="line"/>
      <point x="479" y="0" type="line"/>
      <point x="517" y="97" type="line"/>
      <point x="428" y="202"/>
      <point x="347" y="324"/>
      <point x="270" y="463" type="curve"/>
      <point x="258" y="463" type="line"/>
      <point x="188" y="305"/>
      <point x="105" y="155"/>
      <point x="13" y="10" type="curve"/>
    </contour>
    <contour>
      <point x="428" y="51" type="curve"/>
      <point x="441" y="93" type="line"/>
      <point x="71" y="93" type="line"/>
      <point x="84" y="58" type="line"/>
      <point x="139" y="146"/>
      <point x="197" y="253"/>
      <point x="246" y="349" type="curve"/>
      <point x="227" y="349" type="line"/>
      <point x="290" y="244"/>
      <point x="357" y="144"/>
    </contour>
  </outline>
</glyph>
<glyph name="chhim-yezi" format="2">
  <advance width="686"/>
  <unicode hex="10E88"/>
  <outline>
    <contour>
      <point x="13" y="0" type="line"/>
      <point x="479" y="0" type="line"/>
      <point x="660" y="407" type="line"/>
      <point x="627" y="422" type="line"/>
      <point x="474" y="78" type="line"/>
      <point x="514" y="99" type="line"/>
      <point x="427" y="204"/>
      <point x="346" y="325"/>
      <point x="270" y="463" type="curve"/>
      <point x="258" y="463" type="line"/>
      <point x="188" y="305"/>
      <point x="105" y="155"/>
      <point x="13" y="10" type="curve"/>
    </contour>
    <contour>
      <point x="13" y="-103" type="line"/>
      <point x="479" y="-103" type="line"/>
      <point x="479" y="-70" type="line"/>
      <point x="13" y="-70" type="line"/>
    </contour>
    <contour>
      <point x="84" y="58" type="line"/>
      <point x="141" y="149"/>
      <point x="200" y="258"/>
      <point x="249" y="355" type="curve"/>
      <point x="223" y="355" type="line"/>
      <point x="286" y="249"/>
      <point x="353" y="148"/>
      <point x="424" y="55" type="curve"/>
      <point x="424" y="93" type="line"/>
      <point x="84" y="93" type="line"/>
    </contour>
  </outline>
</glyph>
<glyph name="hha-yezi" format="2">
  <advance width="553"/>
  <unicode hex="10E89"/>
  <outline>
    <contour>
      <point x="284" y="0" type="curve"/>
      <point x="295" y="0" type="line"/>
      <point x="365" y="158"/>
      <point x="449" y="308"/>
      <point x="540" y="453" type="curve"/>
      <point x="540" y="463" type="line"/>
      <point x="75" y="463" type="line"/>
      <point x="37" y="366" type="line"/>
      <point x="125" y="261"/>
      <point x="207" y="139"/>
    </contour>
    <contour>
      <point x="307" y="114" type="curve"/>
      <point x="326" y="114" type="line"/>
      <point x="263" y="219"/>
      <point x="197" y="319"/>
      <point x="126" y="412" type="curve"/>
      <point x="112" y="370" type="line"/>
      <point x="482" y="370" type="line"/>
      <point x="469" y="405" type="line"/>
      <point x="415" y="317"/>
      <point x="356" y="210"/>
    </contour>
  </outline>
</glyph>
<glyph name="xa-yezi" format="2">
  <advance width="597"/>
  <unicode hex="10E8A"/>
  <outline>
    <contour>
      <point x="37" y="0" type="line"/>
      <point x="502" y="0" type="line"/>
      <point x="540" y="97" type="line"/>
      <point x="461" y="192"/>
      <point x="387" y="300"/>
      <point x="316" y="422" type="curve"/>
      <point x="263" y="422" type="line"/>
      <point x="197" y="279"/>
      <point x="120" y="142"/>
      <point x="37" y="10" type="curve"/>
    </contour>
    <contour>
      <point x="451" y="51" type="curve"/>
      <point x="465" y="93" type="line"/>
      <point x="95" y="93" type="line"/>
      <point x="107" y="58" type="line"/>
      <point x="162" y="146"/>
      <point x="221" y="253"/>
      <point x="270" y="349" type="curve"/>
      <point x="250" y="349" type="line"/>
      <point x="313" y="244"/>
      <point x="380" y="144"/>
    </contour>
    <contour>
      <point x="33" y="379" type="line"/>
      <point x="505" y="379" type="line"/>
      <point x="535" y="457" type="line"/>
      <point x="535" y="463" type="line"/>
      <point x="64" y="463" type="line"/>
      <point x="33" y="385" type="line"/>
    </contour>
  </outline>
</glyph>
<glyph name="dal-yezi" format="2">
  <advance width="528"/>
  <unicode hex="10E8B"/>
  <outline>
    <contour>
      <point x="62" y="0" type="line"/>
      <point x="431" y="0" type="line"/>
      <point x="471" y="95" type="line"/>
      <point x="471" y="101" type="line"/>
      <point x="457" y="157"/>
      <point x="451" y="211"/>
      <point x="451" y="269" type="curve" smooth="yes"/>
      <point x="451" y="325"/>
      <point x="456" y="386"/>
      <point x="466" y="457" type="curve"/>
      <point x="466" y="463" type="line"/>
      <point x="97" y="463" type="line"/>
      <point x="57" y="368" type="line"/>
      <point x="57" y="362" type="line"/>
      <point x="70" y="306"/>
      <point x="77" y="252"/>
      <point x="77" y="194" type="curve" smooth="yes"/>
      <point x="77" y="138"/>
      <point x="72" y="77"/>
      <point x="62" y="6" type="curve"/>
    </contour>
    <contour>
      <point x="407" y="50" type="curve"/>
      <point x="457" y="105" type="line"/>
      <point x="96" y="105" type="line"/>
      <point x="102" y="85" type="line"/>
      <point x="114" y="162"/>
      <point x="125" y="245"/>
      <point x="125" y="328" type="curve" smooth="yes"/>
      <point x="125" y="356"/>
      <point x="124" y="385"/>
      <point x="121" y="413" type="curve"/>
      <point x="71" y="358" type="line"/>
      <point x="432" y="358" type="line"/>
      <point x="426" y="378" type="line"/>
      <point x="414" y="301"/>
      <point x="403" y="218"/>
      <point x="403" y="135" type="curve" smooth="yes"/>
      <point x="403" y="107"/>
      <point x="404" y="78"/>
    </contour>
  </outline>
</glyph>
<glyph name="zal-yezi" format="2">
  <advance width="529"/>
  <unicode hex="10E8C"/>
  <outline>
    <contour>
      <point x="83" y="-293" type="line"/>
      <point x="88" y="-293" type="line"/>
      <point x="152" y="-256" type="line"/>
      <point x="118" y="385" type="line"/>
      <point x="100" y="358" type="line"/>
      <point x="433" y="358" type="line"/>
      <point x="428" y="378" type="line"/>
      <point x="416" y="301"/>
      <point x="404" y="218"/>
      <point x="404" y="135" type="curve" smooth="yes"/>
      <point x="404" y="107"/>
      <point x="406" y="78"/>
      <point x="409" y="50" type="curve"/>
      <point x="458" y="105" type="line"/>
      <point x="104" y="105" type="line"/>
      <point x="104" y="0" type="line"/>
      <point x="432" y="0" type="line"/>
      <point x="472" y="95" type="line"/>
      <point x="472" y="101" type="line"/>
      <point x="459" y="157"/>
      <point x="452" y="211"/>
      <point x="452" y="269" type="curve" smooth="yes"/>
      <point x="452" y="325"/>
      <point x="457" y="386"/>
      <point x="467" y="457" type="curve"/>
      <point x="467" y="463" type="line"/>
      <point x="114" y="463" type="line"/>
      <point x="97" y="444"/>
      <point x="70" y="374"/>
      <point x="72" y="306" type="curve" smooth="yes"/>
    </contour>
  </outline>
</glyph>
<glyph name="ra-yezi" format="2">
  <advance width="646"/>
  <unicode hex="10E8D"/>
  <outline>
    <contour>
      <point x="547" y="-5" type="curve" smooth="yes"/>
      <point x="575" y="-5"/>
      <point x="596" y="9"/>
      <point x="602" y="41" type="curve"/>
      <point x="560" y="60"/>
      <point x="538" y="118"/>
      <point x="538" y="207" type="curve" smooth="yes"/>
      <point x="538" y="293"/>
      <point x="553" y="375"/>
      <point x="582" y="457" type="curve"/>
      <point x="582" y="463" type="line"/>
      <point x="98" y="463" type="line"/>
      <point x="59" y="364" type="line"/>
      <point x="81" y="297"/>
      <point x="92" y="228"/>
      <point x="92" y="159" type="curve" smooth="yes"/>
      <point x="92" y="93"/>
      <point x="82" y="43"/>
      <point x="70" y="0" type="curve"/>
      <point x="107" y="0" type="line"/>
      <point x="129" y="74"/>
      <point x="147" y="175"/>
      <point x="147" y="278" type="curve" smooth="yes"/>
      <point x="147" y="335"/>
      <point x="139" y="376"/>
      <point x="128" y="423" type="curve"/>
      <point x="69" y="356" type="line"/>
      <point x="547" y="356" type="line"/>
      <point x="523" y="375" type="line"/>
      <point x="497" y="291"/>
      <point x="477" y="173"/>
      <point x="477" y="98" type="curve" smooth="yes"/>
      <point x="477" y="30"/>
      <point x="500" y="-5"/>
    </contour>
  </outline>
</glyph>
<glyph name="za-yezi" format="2">
  <advance width="369"/>
  <unicode hex="10E8F"/>
  <outline>
    <contour>
      <point x="263" y="-5" type="curve"/>
      <point x="335" y="78" type="line"/>
      <point x="335" y="84" type="line"/>
      <point x="265" y="145"/>
      <point x="190" y="208"/>
      <point x="114" y="265" type="curve"/>
      <point x="108" y="243" type="line"/>
      <point x="173" y="308"/>
      <point x="236" y="375"/>
      <point x="295" y="441" type="curve"/>
      <point x="273" y="463" type="line"/>
      <point x="196" y="379"/>
      <point x="108" y="292"/>
      <point x="17" y="208" type="curve"/>
      <point x="17" y="203" type="line"/>
      <point x="104" y="135"/>
      <point x="187" y="64"/>
    </contour>
  </outline>
</glyph>
<glyph name="ja-yezi" format="2">
  <advance width="676"/>
  <unicode hex="10E90"/>
  <outline>
    <contour>
      <point x="584" y="-6" type="curve"/>
      <point x="590" y="-6" type="line"/>
      <point x="653" y="80" type="line"/>
      <point x="547" y="199"/>
      <point x="444" y="326"/>
      <point x="352" y="463" type="curve"/>
      <point x="340" y="463" type="line"/>
      <point x="253" y="304"/>
      <point x="157" y="154"/>
      <point x="59" y="21" type="curve"/>
      <point x="84" y="0" type="line"/>
      <point x="169" y="115"/>
      <point x="246" y="232"/>
      <point x="318" y="359" type="curve"/>
      <point x="310" y="359" type="line"/>
      <point x="394" y="230"/>
      <point x="486" y="110"/>
    </contour>
    <contour>
      <point x="324" y="0" type="curve"/>
      <point x="336" y="0" type="line"/>
      <point x="422" y="159"/>
      <point x="518" y="309"/>
      <point x="617" y="442" type="curve"/>
      <point x="592" y="463" type="line"/>
      <point x="506" y="348"/>
      <point x="429" y="231"/>
      <point x="358" y="104" type="curve"/>
      <point x="365" y="104" type="line"/>
      <point x="282" y="233"/>
      <point x="190" y="353"/>
      <point x="92" y="469" type="curve"/>
      <point x="86" y="469" type="line"/>
      <point x="23" y="383" type="line"/>
      <point x="129" y="264"/>
      <point x="231" y="137"/>
    </contour>
  </outline>
</glyph>
<glyph name="sin-yezi" format="2">
  <advance width="762"/>
  <unicode hex="10E91"/>
  <outline>
    <contour>
      <point x="64" y="-5" type="line"/>
      <point x="663" y="-5" type="line"/>
      <point x="703" y="94" type="line"/>
      <point x="681" y="161"/>
      <point x="670" y="230"/>
      <point x="670" y="299" type="curve" smooth="yes"/>
      <point x="670" y="365"/>
      <point x="680" y="415"/>
      <point x="692" y="458" type="curve"/>
      <point x="655" y="458" type="line"/>
      <point x="633" y="384"/>
      <point x="615" y="283"/>
      <point x="615" y="180" type="curve" smooth="yes"/>
      <point x="615" y="123"/>
      <point x="623" y="82"/>
      <point x="634" y="35" type="curve"/>
      <point x="693" y="102" type="line"/>
      <point x="99" y="102" type="line"/>
      <point x="123" y="83" type="line"/>
      <point x="149" y="167"/>
      <point x="169" y="285"/>
      <point x="169" y="360" type="curve" smooth="yes"/>
      <point x="169" y="428"/>
      <point x="146" y="463"/>
      <point x="99" y="463" type="curve" smooth="yes"/>
      <point x="72" y="463"/>
      <point x="50" y="449"/>
      <point x="44" y="417" type="curve"/>
      <point x="86" y="398"/>
      <point x="108" y="340"/>
      <point x="108" y="251" type="curve" smooth="yes"/>
      <point x="108" y="165"/>
      <point x="93" y="83"/>
      <point x="64" y="1" type="curve"/>
    </contour>
    <contour>
      <point x="322" y="1" type="curve"/>
      <point x="382" y="83" type="line"/>
      <point x="407" y="167"/>
      <point x="428" y="285"/>
      <point x="428" y="360" type="curve" smooth="yes"/>
      <point x="428" y="428"/>
      <point x="404" y="463"/>
      <point x="358" y="463" type="curve" smooth="yes"/>
      <point x="330" y="463"/>
      <point x="309" y="449"/>
      <point x="302" y="417" type="curve"/>
      <point x="345" y="398"/>
      <point x="367" y="340"/>
      <point x="367" y="251" type="curve" smooth="yes"/>
      <point x="367" y="165"/>
      <point x="352" y="83"/>
    </contour>
  </outline>
</glyph>
<glyph name="shin-yezi" format="2">
  <advance width="762"/>
  <unicode hex="10E92"/>
  <outline>
    <contour>
      <point x="663" y="-5" type="curve" smooth="yes"/>
      <point x="690" y="-5"/>
      <point x="712" y="9"/>
      <point x="718" y="41" type="curve"/>
      <point x="676" y="60"/>
      <point x="654" y="118"/>
      <point x="654" y="207" type="curve" smooth="yes"/>
      <point x="654" y="293"/>
      <point x="669" y="375"/>
      <point x="698" y="457" type="curve"/>
      <point x="698" y="463" type="line"/>
      <point x="98" y="463" type="line"/>
      <point x="59" y="364" type="line"/>
      <point x="81" y="297"/>
      <point x="92" y="228"/>
      <point x="92" y="159" type="curve" smooth="yes"/>
      <point x="92" y="93"/>
      <point x="82" y="43"/>
      <point x="70" y="0" type="curve"/>
      <point x="107" y="0" type="line"/>
      <point x="129" y="74"/>
      <point x="147" y="175"/>
      <point x="147" y="278" type="curve" smooth="yes"/>
      <point x="147" y="335"/>
      <point x="139" y="376"/>
      <point x="128" y="423" type="curve"/>
      <point x="69" y="356" type="line"/>
      <point x="662" y="356" type="line"/>
      <point x="638" y="375" type="line"/>
      <point x="613" y="291"/>
      <point x="593" y="173"/>
      <point x="593" y="98" type="curve" smooth="yes"/>
      <point x="593" y="30"/>
      <point x="616" y="-5"/>
    </contour>
    <contour>
      <point x="404" y="-5" type="curve" smooth="yes"/>
      <point x="432" y="-5"/>
      <point x="453" y="9"/>
      <point x="460" y="41" type="curve"/>
      <point x="417" y="60"/>
      <point x="395" y="118"/>
      <point x="395" y="207" type="curve" smooth="yes"/>
      <point x="395" y="293"/>
      <point x="410" y="375"/>
      <point x="440" y="457" type="curve"/>
      <point x="380" y="375" type="line"/>
      <point x="355" y="291"/>
      <point x="334" y="173"/>
      <point x="334" y="98" type="curve" smooth="yes"/>
      <point x="334" y="30"/>
      <point x="358" y="-5"/>
    </contour>
  </outline>
</glyph>
<glyph name="sad-yezi" format="2">
  <advance width="539"/>
  <unicode hex="10E93"/>
  <outline>
    <contour>
      <point x="34" y="178" type="line"/>
      <point x="465" y="178" type="line"/>
      <point x="505" y="279" type="line"/>
      <point x="505" y="285" type="line"/>
      <point x="73" y="285" type="line"/>
      <point x="34" y="184" type="line"/>
    </contour>
    <contour>
      <point x="250" y="0" type="curve"/>
      <point x="296" y="0" type="line"/>
      <point x="300" y="77"/>
      <point x="303" y="154"/>
      <point x="303" y="231" type="curve" smooth="yes"/>
      <point x="303" y="309"/>
      <point x="300" y="386"/>
      <point x="293" y="463" type="curve"/>
      <point x="288" y="463" type="line"/>
      <point x="226" y="415" type="line"/>
      <point x="245" y="279"/>
      <point x="250" y="140"/>
    </contour>
  </outline>
</glyph>
<glyph name="dad-yezi" format="2">
  <advance width="486"/>
  <unicode hex="10E94"/>
  <outline>
    <contour>
      <point x="392" y="0" type="line"/>
      <point x="468" y="78" type="line"/>
      <point x="468" y="83" type="line"/>
      <point x="92" y="463" type="line"/>
      <point x="18" y="386" type="line"/>
      <point x="18" y="380" type="line"/>
    </contour>
    <contour>
      <point x="68" y="0" type="line"/>
      <point x="442" y="437" type="line"/>
      <point x="442" y="443" type="line"/>
      <point x="419" y="463" type="line"/>
      <point x="44" y="26" type="line"/>
      <point x="44" y="21" type="line"/>
    </contour>
  </outline>
</glyph>
<glyph name="ta-yezi" format="2">
  <advance width="395"/>
  <unicode hex="10E95"/>
  <outline>
    <contour>
      <point x="279" y="-293" type="line"/>
      <point x="284" y="-293" type="line"/>
      <point x="347" y="-254" type="line"/>
      <point x="316" y="295" type="line" smooth="yes"/>
      <point x="310" y="404"/>
      <point x="268" y="463"/>
      <point x="154" y="463" type="curve" smooth="yes"/>
      <point x="54" y="463" type="line"/>
      <point x="12" y="364" type="line"/>
      <point x="12" y="358" type="line"/>
      <point x="140" y="358" type="line" smooth="yes"/>
      <point x="226" y="358"/>
      <point x="264" y="326"/>
      <point x="266" y="242" type="curve" smooth="yes"/>
    </contour>
  </outline>
</glyph>
<glyph name="ze-yezi" format="2">
  <advance width="558"/>
  <unicode hex="10E96"/>
  <outline>
    <contour>
      <point x="30" y="178" type="line"/>
      <point x="489" y="178" type="line"/>
      <point x="529" y="279" type="line"/>
      <point x="529" y="285" type="line"/>
      <point x="69" y="285" type="line"/>
      <point x="30" y="184" type="line"/>
    </contour>
    <contour>
      <point x="174" y="0" type="curve"/>
      <point x="215" y="0" type="line"/>
      <point x="219" y="68"/>
      <point x="221" y="137"/>
      <point x="221" y="205" type="curve" smooth="yes"/>
      <point x="221" y="292"/>
      <point x="218" y="377"/>
      <point x="209" y="463" type="curve"/>
      <point x="204" y="463" type="line"/>
      <point x="150" y="421" type="line"/>
      <point x="169" y="284"/>
      <point x="174" y="142"/>
    </contour>
    <contour>
      <point x="342" y="0" type="curve"/>
      <point x="383" y="0" type="line"/>
      <point x="387" y="68"/>
      <point x="389" y="137"/>
      <point x="389" y="205" type="curve" smooth="yes"/>
      <point x="389" y="292"/>
      <point x="386" y="377"/>
      <point x="378" y="463" type="curve"/>
      <point x="372" y="463" type="line"/>
      <point x="318" y="421" type="line"/>
      <point x="337" y="284"/>
      <point x="342" y="142"/>
    </contour>
  </outline>
</glyph>
<glyph name="eyn-yezi" format="2">
  <advance width="518"/>
  <unicode hex="10E97"/>
  <outline>
    <contour>
      <point x="24" y="0" type="line"/>
      <point x="391" y="0" type="line"/>
      <point x="409" y="29"/>
      <point x="431" y="79"/>
      <point x="431" y="168" type="curve" smooth="yes"/>
      <point x="431" y="221"/>
      <point x="427" y="341"/>
      <point x="407" y="463" type="curve"/>
      <point x="402" y="463" type="line"/>
      <point x="336" y="414" type="line"/>
      <point x="368" y="302"/>
      <point x="382" y="179"/>
      <point x="382" y="61" type="curve"/>
      <point x="412" y="107" type="line"/>
      <point x="63" y="107" type="line"/>
      <point x="24" y="6" type="line"/>
    </contour>
  </outline>
</glyph>
<glyph name="xheyn-yezi" format="2">
  <advance width="555"/>
  <unicode hex="10E98"/>
  <outline>
    <contour>
      <point x="30" y="272" type="line"/>
      <point x="491" y="272" type="line"/>
      <point x="526" y="361" type="line"/>
      <point x="526" y="366" type="line"/>
      <point x="64" y="366" type="line"/>
      <point x="30" y="278" type="line"/>
    </contour>
    <contour>
      <point x="174" y="0" type="curve"/>
      <point x="215" y="0" type="line"/>
      <point x="219" y="68"/>
      <point x="221" y="137"/>
      <point x="221" y="205" type="curve" smooth="yes"/>
      <point x="221" y="292"/>
      <point x="218" y="377"/>
      <point x="209" y="463" type="curve"/>
      <point x="204" y="463" type="line"/>
      <point x="150" y="421" type="line"/>
      <point x="169" y="284"/>
      <point x="174" y="142"/>
    </contour>
    <contour>
      <point x="30" y="96" type="line"/>
      <point x="491" y="96" type="line"/>
      <point x="526" y="185" type="line"/>
      <point x="526" y="190" type="line"/>
      <point x="64" y="190" type="line"/>
      <point x="30" y="102" type="line"/>
    </contour>
    <contour>
      <point x="342" y="0" type="curve"/>
      <point x="383" y="0" type="line"/>
      <point x="387" y="68"/>
      <point x="389" y="137"/>
      <point x="389" y="205" type="curve" smooth="yes"/>
      <point x="389" y="292"/>
      <point x="386" y="377"/>
      <point x="378" y="463" type="curve"/>
      <point x="372" y="463" type="line"/>
      <point x="318" y="421" type="line"/>
      <point x="337" y="284"/>
      <point x="342" y="142"/>
    </contour>
  </outline>
</glyph>
<glyph name="fa-yezi" format="2">
  <advance width="463"/>
  <unicode hex="10E99"/>
  <outline>
    <contour>
      <point x="51" y="0" type="line"/>
      <point x="399" y="0" type="line"/>
      <point x="439" y="102" type="line"/>
      <point x="439" y="107" type="line"/>
      <point x="68" y="107" type="line"/>
      <point x="92" y="68" type="line"/>
      <point x="99" y="170"/>
      <point x="104" y="271"/>
      <point x="105" y="373" type="curve" smooth="yes"/>
      <point x="105" y="403"/>
      <point x="105" y="433"/>
      <point x="104" y="463" type="curve"/>
      <point x="99" y="463" type="line"/>
      <point x="33" y="414" type="line"/>
      <point x="48" y="281"/>
      <point x="51" y="142"/>
      <point x="51" y="9" type="curve" smooth="yes"/>
    </contour>
  </outline>
</glyph>
<glyph name="va-yezi" format="2">
  <advance width="369"/>
  <unicode hex="10E9A"/>
  <outline>
    <contour>
      <point x="96" y="-5" type="line"/>
      <point x="173" y="79"/>
      <point x="261" y="166"/>
      <point x="352" y="250" type="curve"/>
      <point x="352" y="255" type="line"/>
      <point x="265" y="323"/>
      <point x="182" y="394"/>
      <point x="106" y="463" type="curve"/>
      <point x="34" y="380" type="line"/>
      <point x="34" y="374" type="line"/>
      <point x="104" y="313"/>
      <point x="179" y="250"/>
      <point x="255" y="193" type="curve"/>
      <point x="261" y="215" type="line"/>
      <point x="196" y="150"/>
      <point x="134" y="83"/>
      <point x="74" y="17" type="curve"/>
    </contour>
    <contour>
      <point x="262" y="-6" type="curve" smooth="yes"/>
      <point x="288" y="-6"/>
      <point x="306" y="9"/>
      <point x="306" y="43" type="curve" smooth="yes"/>
      <point x="306" y="76"/>
      <point x="288" y="92"/>
      <point x="262" y="92" type="curve" smooth="yes"/>
      <point x="234" y="92"/>
      <point x="217" y="76"/>
      <point x="217" y="43" type="curve" smooth="yes"/>
      <point x="217" y="9"/>
      <point x="234" y="-6"/>
    </contour>
  </outline>
</glyph>
<glyph name="va-yezi.alt" format="2">
  <advance width="512"/>
  <unicode hex="10E9B"/>
  <outline>
    <contour>
      <point x="145" y="-199" type="line"/>
      <point x="458" y="443" type="line"/>
      <point x="456" y="449" type="line"/>
      <point x="424" y="463" type="line"/>
      <point x="111" y="-178" type="line"/>
      <point x="112" y="-183" type="line"/>
    </contour>
    <contour>
      <point x="68" y="-102" type="line"/>
      <point x="330" y="436" type="line"/>
      <point x="328" y="442" type="line"/>
      <point x="296" y="457" type="line"/>
      <point x="34" y="-82" type="line"/>
      <point x="35" y="-87" type="line"/>
    </contour>
  </outline>
</glyph>
<glyph name="qaf-yezi" format="2">
  <advance width="497"/>
  <unicode hex="10E9C"/>
  <outline>
    <contour>
      <point x="13" y="0" type="line"/>
      <point x="445" y="0" type="line"/>
      <point x="484" y="101" type="line"/>
      <point x="484" y="107" type="line"/>
      <point x="53" y="107" type="line"/>
      <point x="13" y="5" type="line"/>
    </contour>
    <contour>
      <point x="227" y="-293" type="curve"/>
      <point x="262" y="-293" type="line"/>
      <point x="268" y="-201"/>
      <point x="272" y="-139"/>
      <point x="272" y="-77" type="curve" smooth="yes"/>
      <point x="272" y="-26"/>
      <point x="270" y="28"/>
      <point x="265" y="79" type="curve"/>
      <point x="260" y="79" type="line"/>
      <point x="204" y="27" type="line"/>
      <point x="222" y="-64"/>
      <point x="227" y="-131"/>
      <point x="228" y="-225" type="curve" smooth="yes"/>
      <point x="228" y="-255"/>
      <point x="228" y="-278"/>
    </contour>
  </outline>
</glyph>
<glyph name="khaf-yezi" format="2">
  <advance width="479"/>
  <unicode hex="10E9E"/>
  <outline>
    <contour>
      <point x="364" y="-293" type="line"/>
      <point x="370" y="-293" type="line"/>
      <point x="436" y="-209" type="line"/>
      <point x="236" y="-60" type="line" smooth="yes"/>
      <point x="184" y="-21"/>
      <point x="168" y="-2"/>
      <point x="168" y="23" type="curve" smooth="yes"/>
      <point x="168" y="47"/>
      <point x="182" y="61"/>
      <point x="231" y="83" type="curve" smooth="yes"/>
      <point x="380" y="150" type="line"/>
      <point x="380" y="169" type="line"/>
      <point x="230" y="272" type="line" smooth="yes"/>
      <point x="184" y="303"/>
      <point x="176" y="312"/>
      <point x="176" y="329" type="curve" smooth="yes"/>
      <point x="176" y="351"/>
      <point x="190" y="361"/>
      <point x="244" y="380" type="curve" smooth="yes"/>
      <point x="406" y="437" type="line"/>
      <point x="397" y="469" type="line"/>
      <point x="391" y="469" type="line"/>
      <point x="184" y="399" type="line" smooth="yes"/>
      <point x="107" y="373"/>
      <point x="76" y="346"/>
      <point x="76" y="300" type="curve" smooth="yes"/>
      <point x="76" y="260"/>
      <point x="99" y="229"/>
      <point x="157" y="190" type="curve" smooth="yes"/>
      <point x="273" y="112" type="line"/>
      <point x="297" y="152" type="line"/>
      <point x="144" y="85" type="line" smooth="yes"/>
      <point x="83" y="58"/>
      <point x="60" y="34"/>
      <point x="60" y="-6" type="curve" smooth="yes"/>
      <point x="60" y="-48"/>
      <point x="86" y="-84"/>
      <point x="149" y="-132" type="curve" smooth="yes"/>
    </contour>
    <contour>
      <point x="64" y="426" type="line"/>
      <point x="380" y="533" type="line"/>
      <point x="371" y="564" type="line"/>
      <point x="54" y="456" type="line"/>
    </contour>
  </outline>
</glyph>
<glyph name="gaf-yezi" format="2">
  <advance width="547"/>
  <unicode hex="10E9F"/>
  <outline>
    <contour>
      <point x="460" y="0" type="line"/>
      <point x="529" y="84" type="line"/>
      <point x="529" y="89" type="line"/>
      <point x="86" y="463" type="line"/>
      <point x="18" y="380" type="line"/>
      <point x="18" y="374" type="line"/>
    </contour>
    <contour>
      <point x="73" y="80" type="line"/>
      <point x="387" y="437" type="line"/>
      <point x="387" y="443" type="line"/>
      <point x="363" y="463" type="line"/>
      <point x="48" y="106" type="line"/>
      <point x="48" y="101" type="line"/>
    </contour>
    <contour>
      <point x="181" y="0" type="line"/>
      <point x="500" y="362" type="line"/>
      <point x="500" y="368" type="line"/>
      <point x="477" y="388" type="line"/>
      <point x="157" y="26" type="line"/>
      <point x="157" y="21" type="line"/>
    </contour>
  </outline>
</glyph>
<glyph name="lam-yezi" format="2">
  <advance width="387"/>
  <unicode hex="10EA0"/>
  <outline>
    <contour>
      <point x="12" y="0" type="line"/>
      <point x="154" y="0" type="line" smooth="yes"/>
      <point x="271" y="0"/>
      <point x="319" y="63"/>
      <point x="319" y="179" type="curve" smooth="yes"/>
      <point x="319" y="346"/>
      <point x="309" y="570"/>
      <point x="288" y="770" type="curve"/>
      <point x="283" y="770" type="line"/>
      <point x="219" y="724" type="line"/>
      <point x="248" y="556"/>
      <point x="265" y="359"/>
      <point x="265" y="221" type="curve" smooth="yes"/>
      <point x="265" y="137"/>
      <point x="227" y="105"/>
      <point x="141" y="105" type="curve" smooth="yes"/>
      <point x="54" y="105" type="line"/>
      <point x="12" y="5" type="line"/>
    </contour>
  </outline>
</glyph>
<glyph name="mim-yezi" format="2">
  <advance width="396"/>
  <unicode hex="10EA1"/>
  <outline>
    <contour>
      <point x="242" y="0" type="curve" smooth="yes"/>
      <point x="342" y="0" type="line"/>
      <point x="384" y="99" type="line"/>
      <point x="384" y="105" type="line"/>
      <point x="256" y="105" type="line" smooth="yes"/>
      <point x="170" y="105"/>
      <point x="132" y="137"/>
      <point x="130" y="221" type="curve" smooth="yes"/>
      <point x="116" y="770" type="line"/>
      <point x="111" y="770" type="line"/>
      <point x="48" y="731" type="line"/>
      <point x="80" y="168" type="line" smooth="yes"/>
      <point x="86" y="59"/>
      <point x="128" y="0"/>
    </contour>
  </outline>
</glyph>
<glyph name="nun-yezi" format="2">
  <advance width="646"/>
  <unicode hex="10EA2"/>
  <outline>
    <contour>
      <point x="64" y="0" type="line"/>
      <point x="548" y="0" type="line"/>
      <point x="587" y="99" type="line"/>
      <point x="565" y="166"/>
      <point x="554" y="235"/>
      <point x="554" y="304" type="curve" smooth="yes"/>
      <point x="554" y="370"/>
      <point x="564" y="420"/>
      <point x="576" y="463" type="curve"/>
      <point x="539" y="463" type="line"/>
      <point x="517" y="389"/>
      <point x="499" y="288"/>
      <point x="499" y="185" type="curve" smooth="yes"/>
      <point x="499" y="128"/>
      <point x="507" y="87"/>
      <point x="518" y="40" type="curve"/>
      <point x="577" y="107" type="line"/>
      <point x="99" y="107" type="line"/>
      <point x="123" y="88" type="line"/>
      <point x="149" y="172"/>
      <point x="169" y="290"/>
      <point x="169" y="365" type="curve" smooth="yes"/>
      <point x="169" y="433"/>
      <point x="146" y="468"/>
      <point x="99" y="468" type="curve" smooth="yes"/>
      <point x="72" y="468"/>
      <point x="50" y="454"/>
      <point x="44" y="422" type="curve"/>
      <point x="86" y="403"/>
      <point x="108" y="345"/>
      <point x="108" y="256" type="curve" smooth="yes"/>
      <point x="108" y="170"/>
      <point x="93" y="88"/>
      <point x="64" y="6" type="curve"/>
    </contour>
  </outline>
</glyph>
<glyph name="um-yezi" format="2">
  <advance width="369"/>
  <unicode hex="10EA3"/>
  <anchor x="196" y="495" name="top"/>
  <outline>
    <contour>
      <point x="96" y="-5" type="line"/>
      <point x="173" y="79"/>
      <point x="261" y="166"/>
      <point x="352" y="250" type="curve"/>
      <point x="352" y="255" type="line"/>
      <point x="265" y="323"/>
      <point x="182" y="394"/>
      <point x="106" y="463" type="curve"/>
      <point x="34" y="380" type="line"/>
      <point x="34" y="374" type="line"/>
      <point x="104" y="313"/>
      <point x="179" y="250"/>
      <point x="255" y="193" type="curve"/>
      <point x="261" y="215" type="line"/>
      <point x="196" y="150"/>
      <point x="133" y="83"/>
      <point x="74" y="17" type="curve"/>
    </contour>
  </outline>
</glyph>
<glyph name="waw-yezi" format="2">
  <advance width="386"/>
  <unicode hex="10EA4"/>
  <anchor x="196" y="495" name="top"/>
  <outline>
    <contour>
      <point x="96" y="-5" type="line"/>
      <point x="173" y="79"/>
      <point x="261" y="166"/>
      <point x="352" y="250" type="curve"/>
      <point x="352" y="255" type="line"/>
      <point x="265" y="323"/>
      <point x="182" y="394"/>
      <point x="106" y="463" type="curve"/>
      <point x="34" y="380" type="line"/>
      <point x="34" y="374" type="line"/>
      <point x="104" y="313"/>
      <point x="179" y="250"/>
      <point x="255" y="193" type="curve"/>
      <point x="254" y="208" type="line"/>
      <point x="191" y="145"/>
      <point x="131" y="81"/>
      <point x="74" y="17" type="curve"/>
    </contour>
    <contour>
      <point x="258" y="14" type="line"/>
      <point x="278" y="34"/>
      <point x="301" y="59"/>
      <point x="321" y="80" type="curve"/>
      <point x="292" y="74" type="line"/>
      <point x="310" y="54"/>
      <point x="330" y="33"/>
      <point x="351" y="14" type="curve"/>
      <point x="353" y="14" type="line"/>
      <point x="386" y="48" type="line"/>
      <point x="364" y="68"/>
      <point x="342" y="90"/>
      <point x="320" y="114" type="curve"/>
      <point x="319" y="114" type="line"/>
      <point x="294" y="87"/>
      <point x="265" y="57"/>
      <point x="241" y="31" type="curve"/>
    </contour>
  </outline>
</glyph>
<glyph name="ow-yezi" format="2">
  <advance width="391"/>
  <unicode hex="10EA5"/>
  <anchor x="196" y="495" name="top"/>
  <outline>
    <contour>
      <point x="96" y="-5" type="line"/>
      <point x="173" y="79"/>
      <point x="261" y="166"/>
      <point x="352" y="250" type="curve"/>
      <point x="352" y="255" type="line"/>
      <point x="265" y="323"/>
      <point x="182" y="394"/>
      <point x="106" y="463" type="curve"/>
      <point x="34" y="380" type="line"/>
      <point x="34" y="374" type="line"/>
      <point x="104" y="313"/>
      <point x="179" y="250"/>
      <point x="255" y="193" type="curve"/>
      <point x="261" y="215" type="line"/>
      <point x="196" y="150"/>
      <point x="133" y="83"/>
      <point x="74" y="17" type="curve"/>
    </contour>
    <contour>
      <point x="312" y="386" type="curve"/>
      <point x="313" y="386" type="line"/>
      <point x="338" y="413"/>
      <point x="367" y="443"/>
      <point x="391" y="469" type="curve"/>
      <point x="375" y="486" type="line"/>
      <point x="354" y="466"/>
      <point x="331" y="441"/>
      <point x="311" y="420" type="curve"/>
      <point x="340" y="425" type="line"/>
      <point x="322" y="446"/>
      <point x="302" y="467"/>
      <point x="282" y="486" type="curve"/>
      <point x="279" y="486" type="line"/>
      <point x="246" y="452" type="line"/>
      <point x="268" y="432"/>
      <point x="290" y="409"/>
    </contour>
  </outline>
</glyph>
<glyph name="ew-yezi" format="2">
  <advance width="492"/>
  <unicode hex="10EA6"/>
  <anchor x="261" y="495" name="top"/>
  <outline>
    <contour>
      <point x="227" y="-11" type="curve" smooth="yes"/>
      <point x="362" y="-11"/>
      <point x="448" y="96"/>
      <point x="448" y="225" type="curve" smooth="yes"/>
      <point x="448" y="329"/>
      <point x="399" y="421"/>
      <point x="232" y="476" type="curve"/>
      <point x="196" y="441" type="line" smooth="yes"/>
      <point x="100" y="346"/>
      <point x="52" y="255"/>
      <point x="52" y="148" type="curve" smooth="yes"/>
      <point x="52" y="51"/>
      <point x="116" y="-11"/>
    </contour>
    <contour>
      <point x="282" y="81" type="curve" smooth="yes"/>
      <point x="180" y="81"/>
      <point x="122" y="129"/>
      <point x="122" y="218" type="curve" smooth="yes"/>
      <point x="122" y="285"/>
      <point x="152" y="351"/>
      <point x="215" y="409" type="curve"/>
      <point x="166" y="385" type="line"/>
      <point x="252" y="376"/>
      <point x="408" y="273"/>
      <point x="406" y="102" type="curve"/>
      <point x="423" y="174" type="line"/>
      <point x="395" y="117"/>
      <point x="352" y="81"/>
    </contour>
  </outline>
</glyph>
<glyph name="hay-yezi" format="2">
  <advance width="492"/>
  <unicode hex="10EA7"/>
  <outline>
    <contour>
      <point x="227" y="-11" type="curve" smooth="yes"/>
      <point x="362" y="-11"/>
      <point x="448" y="96"/>
      <point x="448" y="225" type="curve" smooth="yes"/>
      <point x="448" y="328"/>
      <point x="377" y="437"/>
      <point x="126" y="505" type="curve"/>
      <point x="82" y="402" type="line"/>
      <point x="247" y="357"/>
      <point x="406" y="289"/>
      <point x="406" y="102" type="curve"/>
      <point x="423" y="174" type="line"/>
      <point x="395" y="117"/>
      <point x="352" y="81"/>
      <point x="274" y="81" type="curve" smooth="yes"/>
      <point x="180" y="81"/>
      <point x="122" y="129"/>
      <point x="122" y="198" type="curve" smooth="yes"/>
      <point x="122" y="285"/>
      <point x="206" y="353"/>
      <point x="395" y="482" type="curve"/>
      <point x="377" y="509" type="line"/>
      <point x="134" y="351"/>
      <point x="52" y="277"/>
      <point x="52" y="148" type="curve" smooth="yes"/>
      <point x="52" y="51"/>
      <point x="116" y="-11"/>
    </contour>
  </outline>
</glyph>
<glyph name="hamza-yezi" format="2">
  <unicode hex="10EAB"/>
  <anchor x="0" y="516" name="_top"/>
  <outline>
    <contour>
      <point x="-15" y="559" type="line"/>
      <point x="84" y="622"/>
      <point x="103" y="648"/>
      <point x="103" y="673" type="curve" smooth="yes"/>
      <point x="103" y="700"/>
      <point x="84" y="711"/>
      <point x="42" y="718" type="curve" smooth="yes"/>
      <point x="-51" y="734" type="line"/>
      <point x="-41" y="713" type="line"/>
      <point x="-41" y="746"/>
      <point x="11" y="760"/>
      <point x="81" y="768" type="curve"/>
      <point x="108" y="828" type="line"/>
      <point x="19" y="823"/>
      <point x="-92" y="770"/>
      <point x="-92" y="706" type="curve" smooth="yes"/>
      <point x="-92" y="681"/>
      <point x="-78" y="668"/>
      <point x="-46" y="662" type="curve" smooth="yes"/>
      <point x="3" y="653" type="line" smooth="yes"/>
      <point x="27" y="649"/>
      <point x="31" y="644"/>
      <point x="31" y="636" type="curve" smooth="yes"/>
      <point x="31" y="627"/>
      <point x="23" y="618"/>
      <point x="-29" y="580" type="curve"/>
    </contour>
  </outline>
</glyph>
<glyph name="madda-yezi" format="2">
  <unicode hex="10EAC"/>
  <anchor x="0" y="516" name="_top.madda"/>
  <outline>
    <contour>
      <point x="-216" y="582" type="line"/>
      <point x="-134" y="653" type="line"/>
      <point x="-165" y="646" type="line"/>
      <point x="-102" y="628"/>
      <point x="-40" y="618"/>
      <point x="70" y="618" type="curve" smooth="yes"/>
      <point x="112" y="618"/>
      <point x="153" y="621"/>
      <point x="203" y="628" type="curve"/>
      <point x="246" y="702" type="line"/>
      <point x="242" y="706" type="line"/>
      <point x="216" y="700"/>
      <point x="173" y="695"/>
      <point x="115" y="695" type="curve" smooth="yes"/>
      <point x="19" y="695"/>
      <point x="-58" y="706"/>
      <point x="-101" y="722" type="curve"/>
      <point x="-107" y="722" type="line"/>
      <point x="-237" y="605" type="line"/>
    </contour>
  </outline>
</glyph>
<glyph name="hyphen-yezi" format="2">
  <advance width="257"/>
  <unicode hex="10EAD"/>
  <outline>
    <contour>
      <point x="118" y="479" type="curve" smooth="yes"/>
      <point x="151" y="479"/>
      <point x="176" y="498"/>
      <point x="176" y="531" type="curve" smooth="yes"/>
      <point x="176" y="587"/>
      <point x="113" y="581"/>
      <point x="113" y="614" type="curve" smooth="yes"/>
      <point x="113" y="647"/>
      <point x="140" y="670"/>
      <point x="193" y="688" type="curve"/>
      <point x="193" y="726" type="line"/>
      <point x="89" y="695"/>
      <point x="49" y="631"/>
      <point x="49" y="559" type="curve" smooth="yes"/>
      <point x="49" y="508"/>
      <point x="80" y="479"/>
    </contour>
  </outline>
</glyph>
<glyph name="lamDot-yezi" format="2">
  <advance width="387"/>
  <unicode hex="10EB0"/>
  <outline>
    <contour>
      <point x="12" y="0" type="line"/>
      <point x="154" y="0" type="line" smooth="yes"/>
      <point x="271" y="0"/>
      <point x="319" y="63"/>
      <point x="319" y="179" type="curve" smooth="yes"/>
      <point x="319" y="346"/>
      <point x="309" y="570"/>
      <point x="288" y="770" type="curve"/>
      <point x="283" y="770" type="line"/>
      <point x="219" y="724" type="line"/>
      <point x="248" y="556"/>
      <point x="265" y="359"/>
      <point x="265" y="221" type="curve" smooth="yes"/>
      <point x="265" y="137"/>
      <point x="227" y="105"/>
      <point x="141" y="105" type="curve" smooth="yes"/>
      <point x="54" y="105" type="line"/>
      <point x="12" y="5" type="line"/>
    </contour>
    <contour>
      <point x="249" y="824" type="curve" smooth="yes"/>
      <point x="275" y="824"/>
      <point x="293" y="839"/>
      <point x="293" y="873" type="curve" smooth="yes"/>
      <point x="293" y="906"/>
      <point x="275" y="922"/>
      <point x="249" y="922" type="curve" smooth="yes"/>
      <point x="222" y="922"/>
      <point x="204" y="906"/>
      <point x="204" y="873" type="curve" smooth="yes"/>
      <point x="204" y="839"/>
      <point x="222" y="824"/>
    </contour>
  </outline>
</glyph>
<glyph name="yotCircum-yezi" format="2">
  <advance width="519"/>
  <unicode hex="10EB1"/>
  <anchor x="261" y="795" name="top"/>
  <outline>
    <contour>
      <point x="412" y="-293" type="curve"/>
      <point x="417" y="-293" type="line"/>
      <point x="480" y="-255" type="line"/>
      <point x="464" y="-150"/>
      <point x="459" y="-50"/>
      <point x="459" y="37" type="curve" smooth="yes"/>
      <point x="459" y="298" type="line" smooth="yes"/>
      <point x="459" y="380"/>
      <point x="430" y="463"/>
      <point x="267" y="463" type="curve" smooth="yes"/>
      <point x="97" y="463" type="line"/>
      <point x="57" y="368" type="line"/>
      <point x="57" y="362" type="line"/>
      <point x="70" y="306"/>
      <point x="77" y="252"/>
      <point x="77" y="194" type="curve" smooth="yes"/>
      <point x="77" y="138"/>
      <point x="72" y="77"/>
      <point x="62" y="6" type="curve"/>
      <point x="62" y="0" type="line"/>
      <point x="439" y="0" type="line"/>
      <point x="439" y="105" type="line"/>
      <point x="96" y="105" type="line"/>
      <point x="102" y="85" type="line"/>
      <point x="114" y="162"/>
      <point x="125" y="245"/>
      <point x="125" y="328" type="curve" smooth="yes"/>
      <point x="125" y="356"/>
      <point x="124" y="385"/>
      <point x="121" y="413" type="curve"/>
      <point x="71" y="358" type="line"/>
      <point x="296" y="358" type="line" smooth="yes"/>
      <point x="371" y="358"/>
      <point x="403" y="329"/>
      <point x="403" y="253" type="curve" smooth="yes"/>
      <point x="403" y="-99" type="line" smooth="yes"/>
      <point x="403" y="-164"/>
      <point x="406" y="-228"/>
    </contour>
    <contour>
      <point x="123" y="541" type="line"/>
      <point x="172" y="592"/>
      <point x="218" y="639"/>
      <point x="264" y="693" type="curve"/>
      <point x="248" y="686" type="line"/>
      <point x="280" y="641"/>
      <point x="324" y="588"/>
      <point x="367" y="541" type="curve"/>
      <point x="372" y="541" type="line"/>
      <point x="437" y="602" type="line"/>
      <point x="389" y="651"/>
      <point x="335" y="709"/>
      <point x="293" y="766" type="curve"/>
      <point x="289" y="766" type="line"/>
      <point x="231" y="694"/>
      <point x="163" y="622"/>
      <point x="104" y="559" type="curve"/>
    </contour>
  </outline>
</glyph>
<glyph name=".notdef" format="2">
  <advance width="595"/>
  <outline>
    <contour>
      <point x="92" y="0" type="line"/>
      <point x="503" y="0" type="line"/>
      <point x="503" y="714" type="line"/>
      <point x="92" y="714" type="line"/>
    </contour>
    <contour>
      <point x="143" y="51" type="line"/>
      <point x="143" y="663" type="line"/>
      <point x="452" y="663" type="line"/>
      <point x="452" y="51" type="line"/>
    </contour>
  </outline>
</glyph>
